HIERARCHY
ROOT Hips
{
	OFFSET 0.000000 0.000000 0.000000
	CHANNELS 6 Xposition Yposition Zposition Zrotation Yrotation Xrotation 
	JOINT LHipJoint
	{
		OFFSET 0.000000 0.000000 0.000000
		CHANNELS 3 Zrotation Yrotation Xrotation
		JOINT LeftUpLeg
		{
			OFFSET 1.363060 -1.794630 0.839290
			CHANNELS 3 Zrotation Yrotation Xrotation
			JOINT LeftLeg
			{
				OFFSET 2.448110 -6.726130 0.000000
				CHANNELS 3 Zrotation Yrotation Xrotation
				JOINT LeftFoot
				{
					OFFSET 2.562200 -7.039590 0.000000
					CHANNELS 3 Zrotation Yrotation Xrotation
					JOINT LeftToeBase
					{
						OFFSET 0.157640 -0.433110 2.322550
						CHANNELS 3 Zrotation Yrotation Xrotation
						End Site
						{
							OFFSET 0.000000 0.000000 0.000000
						}
					}
				}
			}
		}
	}
	JOINT RHipJoint
	{
		OFFSET 0.000000 0.000000 0.000000
		CHANNELS 3 Zrotation Yrotation Xrotation
		JOINT RightUpLeg
		{
			OFFSET -1.305520 -1.794630 0.839290
			CHANNELS 3 Zrotation Yrotation Xrotation
			JOINT RightLeg
			{
				OFFSET -2.542530 -6.985550 0.000000
				CHANNELS 3 Zrotation Yrotation Xrotation
				JOINT RightFoot
				{
					OFFSET -2.568260 -7.056230 0.000000
					CHANNELS 3 Zrotation Yrotation Xrotation
					JOINT RightToeBase
					{
						OFFSET -0.164730 -0.452590 2.363150
						CHANNELS 3 Zrotation Yrotation Xrotation
						End Site
						{
							OFFSET 0.000000 0.000000 0.000000
						}
					}
				}
			}
		}
	}
	JOINT LowerBack
	{
		OFFSET 0.000000 0.000000 0.000000
		CHANNELS 3 Zrotation Yrotation Xrotation
		JOINT Spine
		{
			OFFSET 0.028270 2.035590 -0.193380
			CHANNELS 3 Zrotation Yrotation Xrotation
			JOINT Spine1
			{
				OFFSET 0.056720 2.048850 -0.042750
				CHANNELS 3 Zrotation Yrotation Xrotation
				JOINT Neck
				{
					OFFSET 0.000000 0.000000 0.000000
					CHANNELS 3 Zrotation Yrotation Xrotation
					JOINT Neck1
					{
						OFFSET -0.054170 1.746240 0.172020
						CHANNELS 3 Zrotation Yrotation Xrotation
						JOINT Head
						{
							OFFSET 0.104070 1.761360 -0.123970
							CHANNELS 3 Zrotation Yrotation Xrotation
							End Site
							{
								OFFSET 0.000000 0.000000 0.000000
							}
						}
					}
				}
				JOINT LeftShoulder
				{
					OFFSET 0.000000 0.000000 0.000000
					CHANNELS 3 Zrotation Yrotation Xrotation
					JOINT LeftArm
					{
						OFFSET 3.362410 1.200890 -0.311210
						CHANNELS 3 Zrotation Yrotation Xrotation
						JOINT LeftForeArm
						{
							OFFSET 4.983000 -0.000000 -0.000000
							CHANNELS 3 Zrotation Yrotation Xrotation
							JOINT LeftHand
							{
								OFFSET 3.483560 -0.000000 -0.000000
								CHANNELS 3 Zrotation Yrotation Xrotation
								JOINT LeftFingerBase
								{
									OFFSET 0.000000 0.000000 0.000000
									CHANNELS 3 Zrotation Yrotation Xrotation
									JOINT LeftHandIndex1
									{
										OFFSET 0.715260 -0.000000 -0.000000
										CHANNELS 3 Zrotation Yrotation Xrotation
										End Site
										{
											OFFSET 0.000000 0.000000 0.000000
										}
									}
								}
								JOINT LThumb
								{
									OFFSET 0.000000 0.000000 0.000000
									CHANNELS 3 Zrotation Yrotation Xrotation
									End Site
									{
										OFFSET 0.000000 0.000000 0.000000
									}
								}
							}
						}
					}
				}
				JOINT RightShoulder
				{
					OFFSET 0.000000 0.000000 0.000000
					CHANNELS 3 Zrotation Yrotation Xrotation
					JOINT RightArm
					{
						OFFSET -3.136600 1.374050 -0.404650
						CHANNELS 3 Zrotation Yrotation Xrotation
						JOINT RightForeArm
						{
							OFFSET -5.241900 -0.000000 -0.000000
							CHANNELS 3 Zrotation Yrotation Xrotation
							JOINT RightHand
							{
								OFFSET -3.444170 -0.000000 -0.000000
								CHANNELS 3 Zrotation Yrotation Xrotation
								JOINT RightFingerBase
								{
									OFFSET 0.000000 0.000000 0.000000
									CHANNELS 3 Zrotation Yrotation Xrotation
									JOINT RightHandIndex1
									{
										OFFSET -0.622530 -0.000000 -0.000000
										CHANNELS 3 Zrotation Yrotation Xrotation
										End Site
										{
											OFFSET 0.000000 0.000000 0.000000
										}
									}
								}
								JOINT RThumb
								{
									OFFSET 0.000000 0.000000 0.000000
									CHANNELS 3 Zrotation Yrotation Xrotation
									End Site
									{
										OFFSET 0.000000 0.000000 0.000000
									}
								}
							}
						}
					}
				}
			}
		}
	}
}
MOTION
Frames: 5
Frame Time: 0.008333
14.202940 17.705306 20.632759 163.823857 -7.787767 -158.808515 20.526978 6.569932 2.823359 -10.542900 -32.185164 -37.187359 2.448210 9.704388 21.697297 7.592640 12.446481 -26.280996 0.391800 -4.019300 -11.130900 -22.926468 -7.331099 -1.786962 19.476808 21.569118 -21.114616 -7.249499 -15.280864 47.766433 -6.407641 -0.563273 -55.047216 -1.253400 7.097700 -20.005000 3.648659 0.759634 -17.236271 1.454869 0.103865 -1.696352 -5.442747 -0.212517 15.518359 -6.613313 2.482925 -2.561453 -0.838979 3.432387 36.343605 -0.584200 2.101200 7.191000 17.003379 -1.741695 1.873111 -106.101346 2.667019 13.766271 16.953504 -17.297152 -2.480611 -0.288827 0.473391 5.651179 19.086367 -13.862697 -4.978900 -7.125000 0.000000 0.000000 -5.483800 14.896000 3.908000 -12.370056 2.592097 1.334363 87.223752 2.424278 11.972518 -26.810929 36.830463 -8.146014 0.068621 -0.359661 -5.074219 -9.093355 -57.264589 7.668200 7.125000 0.000000 0.000000 82.552000 -75.318400 -67.254700 
14.107274 17.687133 20.606928 163.706252 -7.689392 -158.832362 20.558441 6.555772 2.862543 -10.770275 -32.281409 -37.102552 2.425208 9.594166 21.381105 7.609995 12.484499 -26.147040 0.265700 -3.315900 -9.159500 -22.907628 -7.311379 -1.845279 19.018199 21.560649 -20.843577 -7.251093 -15.210293 47.747318 -6.452293 -0.385511 -55.274149 -1.237900 7.055200 -19.879000 3.592190 0.639090 -17.224058 1.596695 -0.022565 -1.517473 -5.407362 -0.267825 15.630484 -6.917540 2.622456 -2.617106 -0.830080 3.679310 36.006326 -0.503200 2.203200 7.137000 16.965419 -1.740418 1.865365 -106.382659 2.590965 12.918157 16.958776 -17.353832 -2.477668 -0.290544 0.469308 6.070735 19.212534 -13.692365 -4.954400 -7.125000 0.000000 0.000000 -5.388500 15.068600 3.819500 -12.396816 2.564604 1.314673 86.839661 2.839763 12.502604 -27.200791 37.228174 -8.372277 0.073602 -0.365540 -4.854226 -8.311177 -55.679360 6.885000 7.125000 0.000000 0.000000 76.666700 -74.878400 -60.992000 
14.016407 17.665896 20.585590 163.670898 -7.779226 -158.865961 20.566004 6.561701 2.939905 -10.824266 -32.322806 -37.310517 2.423246 9.533312 21.284034 7.515589 12.054642 -25.435806 0.243200 -3.173400 -8.761900 -22.872179 -7.305126 -1.935934 18.729573 21.424129 -20.519655 -7.275954 -15.158172 47.812124 -6.516923 -0.277629 -55.537761 -1.214800 6.991500 -19.690100 3.578990 0.555209 -17.179665 1.696171 -0.112133 -1.349532 -5.367439 -0.306403 15.720533 -6.910906 2.703144 -2.662798 -0.993636 3.884211 35.698042 -0.516000 2.287200 7.095100 16.947878 -1.727156 1.857193 -106.458507 2.598897 12.638653 17.003145 -17.441290 -2.493927 -0.285052 0.467288 6.017814 19.034405 -13.742937 -4.920900 -7.125000 0.000000 0.000000 -5.515900 15.035000 3.914700 -12.419818 2.548529 1.293148 86.655487 3.134882 12.748424 -27.500687 37.540255 -8.547563 0.073981 -0.363634 -4.891423 -8.068113 -55.620705 6.679600 7.125000 0.000000 0.000000 76.521500 -74.780900 -60.741100 
13.921558 17.645477 20.560065 163.427883 -7.627518 -158.829729 20.591526 6.537771 2.977424 -11.126942 -32.555605 -37.266353 2.400486 9.435283 21.014281 7.496760 11.962576 -25.088453 0.197700 -2.863000 -7.897500 -22.825277 -7.291625 -1.985549 18.013167 21.352124 -20.423712 -7.280713 -15.117432 47.844555 -6.569903 -0.187641 -55.774957 -1.229500 7.032300 -19.811200 3.339279 0.593492 -17.155936 1.622859 0.000040 -1.245522 -5.226448 -0.271517 15.784341 -6.818523 2.667680 -2.668132 -1.114124 3.880000 35.663162 -0.555400 2.275700 7.094000 16.955952 -1.715593 1.858409 -106.425662 2.686492 12.796398 17.089337 -17.566236 -2.528881 -0.278394 0.457847 5.678478 18.740225 -13.675772 -4.813300 -7.125000 0.000000 0.000000 -5.721300 15.142200 4.048800 -12.422339 2.543532 1.278993 86.505195 3.383052 12.862343 -27.595439 37.640350 -8.599099 0.070675 -0.358367 -4.915417 -7.889975 -56.746802 6.617200 7.125000 0.000000 0.000000 80.740000 -74.855700 -64.934700 
13.817010 17.633021 20.532805 163.223704 -7.382191 -159.098348 20.679963 6.465970 2.993822 -11.796922 -32.804473 -36.560536 2.389664 9.255825 20.512500 7.500834 11.976980 -25.106300 0.160900 -2.584200 -7.123200 -22.825463 -7.268931 -2.162612 17.563950 21.117934 -19.721679 -7.276803 -14.911700 47.648257 -6.612989 0.219469 -55.983095 -1.205000 6.964400 -19.610100 3.255282 0.660552 -16.764292 1.521154 0.136803 -1.081408 -5.196121 -0.206815 15.663301 -6.670514 2.444193 -2.750261 -1.364079 3.663680 35.839777 -0.656700 2.141700 7.138600 16.968752 -1.665918 1.859801 -106.402944 2.901157 13.011444 17.210863 -17.745917 -2.579384 -0.288790 0.445949 5.401273 18.908590 -13.558891 -4.817600 -7.125000 0.000000 0.000000 -5.597300 15.259900 3.946000 -12.423312 2.542296 1.262031 86.335531 3.670383 12.948805 -27.600329 37.657626 -8.601933 0.071352 -0.361997 -4.873356 -7.410070 -56.528738 6.200100 7.125000 0.000000 0.000000 80.007800 -74.662400 -63.993700 
